<svg xmlns="http://www.w3.org/2000/svg" viewBox="0 0 740.13 150.9"><defs><style>.cls-1{fill:none;stroke:gray;stroke-width:2px;}</style></defs><g id="Layer_2" data-name="Layer 2"><g id="Layer_1-2" data-name="Layer 1"><path class="cls-1" d="M642,20.05c-18.36,26.79-5.43,62,25,71.59a34.76,34.76,0,0,0,6.25.92.43.43,0,0,0,.48-.37V1.62a.62.62,0,0,0-.62-.62h0c-12.51.78-24.5,9.47-31.07,19.05"/><path class="cls-1" d="M735.28,28.09c-5.68-13.4-20.31-26.35-35.75-27a.52.52,0,0,0-.62.59l0,90.21a.49.49,0,0,0,.54.55,18.73,18.73,0,0,0,4.88-.43c27.92-7.38,42.23-37.36,31-63.9"/><path class="cls-1" d="M59.07,92.22c19-.93,33.47-15,36.79-33.41C100.73,31.86,89.16,4.11,59,1.44c-.32,0-.48.11-.48.44V91.65c0,.4.2.59.61.57"/><path class="cls-1" d="M506.93,87.08c4.52-4.66,5.39-11.91,2.88-17.88a27,27,0,0,0-5.05-7L449.4,2a1.21,1.21,0,0,0-.81-.4c-11.17-.92-22.24.8-23.29,14.32q-.58,7.57,3.45,12,28.75,31.33,58.16,63.31a1.67,1.67,0,0,0,1.17.54c6.46.28,14.06.3,18.85-4.64"/><path class="cls-1" d="M555.19,1.6c-10.75-.82-21.76.75-23.33,13.05q-1.07,8.28,3.54,13.3l58.23,63.37a1.16,1.16,0,0,0,.85.4c6.55.35,14.41.26,19.21-4.76,4.35-4.55,5.24-11.74,2.82-17.56a27.73,27.73,0,0,0-5.16-7.17Q583.7,32.07,556,2a1.15,1.15,0,0,0-.8-.38"/><path class="cls-1" d="M581.7,1.58a.31.31,0,0,0-.31.3.29.29,0,0,0,.09.21L616.05,39a.3.3,0,0,0,.42,0,.29.29,0,0,0,.1-.23V1.88a.3.3,0,0,0-.3-.3H581.7"/><path class="cls-1" d="M33.76,1.85a.27.27,0,0,0-.27-.27H1.27A.27.27,0,0,0,1,1.85H1V91.59a.27.27,0,0,0,.27.27H33.49a.27.27,0,0,0,.27-.27V1.85"/><path class="cls-1" d="M149.49,1.94a.36.36,0,0,0-.36-.36H117.27a.36.36,0,0,0-.36.36h0V91.38a.36.36,0,0,0,.36.36h31.86a.36.36,0,0,0,.36-.36h0V1.94"/><path class="cls-1" d="M248.42,1.9a.32.32,0,0,0-.32-.32H215.82a.32.32,0,0,0-.32.32h0V91.42a.32.32,0,0,0,.32.32H248.1a.32.32,0,0,0,.32-.32h0V1.9"/><path class="cls-1" d="M332.7,91.2a34,34,0,0,0,10.49,1.28.52.52,0,0,0,.56-.59V2.11a.46.46,0,0,0-.52-.53h-32a.52.52,0,0,0-.58.58q0,25.85,0,51.71c0,16,4.64,32.6,22.06,37.33"/><path class="cls-1" d="M369.36,92.52c20.79.52,31.92-14.76,32.18-34.16q.38-28.26.26-56.46c0-.21-.11-.32-.32-.32H369.26a.45.45,0,0,0-.51.52V91.89a.55.55,0,0,0,.61.63"/><path class="cls-1" d="M475.16,1.58a.31.31,0,0,0-.3.32.3.3,0,0,0,.08.2l34.61,37a.3.3,0,0,0,.44,0,.31.31,0,0,0,.1-.24v-37a.31.31,0,0,0-.31-.31H475.16"/><path class="cls-1" d="M461.33,91.75a.31.31,0,0,0,.31-.31.32.32,0,0,0-.08-.21l-36.7-39.91a.3.3,0,0,0-.44,0,.33.33,0,0,0-.1.23l0,39.9a.31.31,0,0,0,.31.31h36.68"/><path class="cls-1" d="M567.8,91.74a.38.38,0,0,0,.37-.37.39.39,0,0,0-.1-.25L531.65,51.58a.37.37,0,0,0-.52,0,.36.36,0,0,0-.12.27V91.37a.37.37,0,0,0,.37.37H567.8"/><path class="cls-1" d="M295.47,54.91a.33.33,0,0,0-.33-.33.31.31,0,0,0-.24.1L260.35,91.17a.33.33,0,0,0,0,.47.32.32,0,0,0,.23.09h34.55a.33.33,0,0,0,.33-.33h0V54.91"/><path d="M642,20.05C648.52,10.47,660.51,1.78,673,1a.62.62,0,0,1,.66.58V92.14a.42.42,0,0,1-.43.42h0a34.76,34.76,0,0,1-6.25-.92C636.52,82,623.59,46.84,642,20.05Z"/><path d="M699.53,1.07c15.44.67,30.07,13.62,35.75,27,11.24,26.54-3.07,56.52-31,63.9a18.73,18.73,0,0,1-4.88.43.49.49,0,0,1-.54-.55l0-90.21A.52.52,0,0,1,699.53,1.07Z"/><path d="M95.86,58.81C92.54,77.24,78.11,91.29,59.07,92.22c-.41,0-.61-.17-.61-.57V1.88c0-.33.16-.47.48-.44C89.16,4.11,100.73,31.86,95.86,58.81Z"/><path d="M506.93,87.08C502.14,92,494.54,92,488.08,91.72a1.67,1.67,0,0,1-1.17-.54q-29.42-32-58.16-63.31-4-4.41-3.45-12C426.35,2.36,437.42.64,448.59,1.56a1.21,1.21,0,0,1,.81.4l55.36,60.26a27,27,0,0,1,5.05,7C512.32,75.17,511.45,82.42,506.93,87.08Z"/><path d="M531.86,14.65c1.57-12.3,12.58-13.87,23.33-13A1.15,1.15,0,0,1,556,2q27.72,30.09,55.36,60.25a27.73,27.73,0,0,1,5.16,7.17c2.42,5.82,1.53,13-2.82,17.56-4.8,5-12.66,5.11-19.21,4.76a1.16,1.16,0,0,1-.85-.4L535.4,28Q530.8,22.93,531.86,14.65Z"/><path d="M581.7,1.58h34.56a.3.3,0,0,1,.3.3V38.79a.31.31,0,0,1-.29.31.33.33,0,0,1-.23-.1L581.48,2.09a.3.3,0,0,1,0-.42A.31.31,0,0,1,581.7,1.58Z"/><rect x="1" y="1.58" width="32.76" height="90.28" rx="0.27"/><rect x="116.91" y="1.58" width="32.58" height="90.16" rx="0.36"/><rect x="215.5" y="1.58" width="32.92" height="90.16" rx="0.32"/><path d="M332.7,91.2c-17.42-4.73-22-21.35-22.06-37.33q0-25.86,0-51.71a.52.52,0,0,1,.58-.58h32a.46.46,0,0,1,.52.53V91.89a.52.52,0,0,1-.56.59A34,34,0,0,1,332.7,91.2Z"/><path d="M401.54,58.36c-.26,19.4-11.39,34.68-32.18,34.16a.55.55,0,0,1-.61-.63V2.1a.45.45,0,0,1,.51-.52h32.22c.21,0,.31.11.32.32Q401.91,30.1,401.54,58.36Z"/><path d="M475.16,1.58h34.62a.31.31,0,0,1,.31.31v37a.31.31,0,0,1-.3.32.28.28,0,0,1-.24-.1l-34.61-37a.31.31,0,0,1,0-.44A.28.28,0,0,1,475.16,1.58Z"/><path d="M461.33,91.75H424.65a.31.31,0,0,1-.31-.31h0l0-39.9a.31.31,0,0,1,.31-.31.33.33,0,0,1,.23.1l36.7,39.91a.31.31,0,0,1,0,.44A.32.32,0,0,1,461.33,91.75Z"/><path d="M567.8,91.74H531.38a.37.37,0,0,1-.37-.37V51.83a.38.38,0,0,1,.37-.37.45.45,0,0,1,.27.12l36.42,39.54a.37.37,0,0,1,0,.52A.35.35,0,0,1,567.8,91.74Z"/><path d="M295.47,54.91v36.5a.33.33,0,0,1-.33.33H260.59a.33.33,0,0,1-.33-.33.33.33,0,0,1,.09-.23L294.9,54.68a.33.33,0,0,1,.47,0A.35.35,0,0,1,295.47,54.91Z"/><path d="M26.71,149.35a20.37,20.37,0,0,1-8.37,1.5c-8.93,0-15.65-5.64-15.65-16,0-9.92,6.72-16.64,16.54-16.64a17,17,0,0,1,7.52,1.41l-1,3.34a14.91,14.91,0,0,0-6.39-1.32C12,121.62,7,126.37,7,134.69c0,7.75,4.46,12.73,12.17,12.73a16.32,16.32,0,0,0,6.67-1.31Z"/><path d="M67.31,134.22c0,10.9-6.62,16.68-14.71,16.68-8.36,0-14.24-6.48-14.24-16.07,0-10.06,6.25-16.64,14.71-16.64C61.72,118.19,67.31,124.82,67.31,134.22Zm-24.58.51c0,6.77,3.67,12.83,10.11,12.83S63,141.6,63,134.41c0-6.3-3.29-12.88-10.1-12.88S42.73,127.78,42.73,134.73Z"/><path d="M108.72,136.47c-.23-4.42-.52-9.73-.47-13.67h-.14c-1.08,3.71-2.4,7.66-4,12l-5.6,15.37h-3.1L90.3,135.11c-1.51-4.46-2.77-8.55-3.67-12.31h-.09c-.09,3.94-.33,9.25-.61,14l-.85,13.58h-3.9l2.21-31.67h5.22L94,134c1.32,3.9,2.4,7.38,3.2,10.67h.14c.8-3.2,1.93-6.68,3.33-10.67l5.64-15.32h5.22l2,31.67h-4Z"/><path d="M155.91,136.47c-.24-4.42-.52-9.73-.47-13.67h-.14c-1.08,3.71-2.4,7.66-4,12l-5.59,15.37h-3.1l-5.12-15.09c-1.51-4.46-2.78-8.55-3.67-12.31h-.09c-.1,3.94-.33,9.25-.61,14l-.85,13.58h-3.9l2.21-31.67h5.21L141.2,134c1.31,3.9,2.4,7.38,3.19,10.67h.14c.8-3.2,1.93-6.68,3.34-10.67l5.64-15.32h5.22l2,31.67h-4Z"/><path d="M192.8,135.53H180.49V147h13.72v3.43H176.4V118.71h17.11v3.43h-13v10H192.8Z"/><path d="M208.93,119.13a42.67,42.67,0,0,1,7.84-.66c4.37,0,7.19.8,9.17,2.59a7.87,7.87,0,0,1,2.49,6,8.32,8.32,0,0,1-6,8.09v.14c2.44.84,3.9,3.1,4.65,6.39,1,4.42,1.79,7.47,2.45,8.69h-4.23c-.52-.89-1.22-3.62-2.12-7.56-.94-4.37-2.63-6-6.34-6.16H213v13.72h-4.08ZM213,133.56h4.19c4.37,0,7.14-2.4,7.14-6,0-4.09-3-5.87-7.28-5.92A16.71,16.71,0,0,0,213,122Z"/><path d="M265.89,149.35a20.37,20.37,0,0,1-8.37,1.5c-8.93,0-15.65-5.64-15.65-16,0-9.92,6.72-16.64,16.54-16.64a17,17,0,0,1,7.52,1.41l-1,3.34a14.91,14.91,0,0,0-6.39-1.32c-7.43,0-12.36,4.75-12.36,13.07,0,7.75,4.46,12.73,12.17,12.73a16.32,16.32,0,0,0,6.67-1.31Z"/><path d="M284.5,118.71v31.67h-4.09V118.71Z"/><path d="M306.17,140.42l-3.29,10h-4.23l10.76-31.67h4.93l10.81,31.67h-4.37l-3.38-10Zm10.38-3.2-3.1-9.11c-.7-2.07-1.17-4-1.64-5.78h-.1c-.47,1.88-1,3.8-1.6,5.73l-3.1,9.16Z"/><path d="M339.21,118.71h4.09V147h13.53v3.43H339.21Z"/><path d="M390.15,119.13a42.87,42.87,0,0,1,7.85-.66c4.37,0,7.19.8,9.17,2.59a7.87,7.87,0,0,1,2.49,6,8.32,8.32,0,0,1-6,8.09v.14c2.44.84,3.9,3.1,4.65,6.39,1,4.42,1.79,7.47,2.45,8.69h-4.23c-.52-.89-1.23-3.62-2.12-7.56-.94-4.37-2.63-6-6.34-6.16h-3.86v13.72h-4.09Zm4.09,14.43h4.19c4.37,0,7.14-2.4,7.14-6,0-4.09-3-5.87-7.29-5.92a16.67,16.67,0,0,0-4,.38Z"/><path d="M441.24,135.53H428.93V147h13.72v3.43H424.84V118.71H442v3.43h-13v10h12.31Z"/><path d="M462.49,140.42l-3.29,10H455l10.76-31.67h4.93l10.81,31.67H477.1l-3.38-10Zm10.38-3.2-3.1-9.11c-.7-2.07-1.17-4-1.64-5.78H468c-.47,1.88-1,3.8-1.6,5.73l-3.1,9.16Z"/><path d="M495.53,118.71h4.09V147h13.53v3.43H495.53Z"/><path d="M562.88,135.53H550.56V147h13.73v3.43H546.47V118.71h17.11v3.43h-13v10h12.32Z"/><path d="M578.43,145.4a14.52,14.52,0,0,0,7.34,2.07c4.18,0,6.62-2.21,6.62-5.4,0-3-1.69-4.66-6-6.3-5.17-1.84-8.36-4.51-8.36-9,0-4.93,4.09-8.6,10.24-8.6a14.39,14.39,0,0,1,7,1.55l-1.13,3.34a12.56,12.56,0,0,0-6-1.51c-4.32,0-6,2.59-6,4.75,0,3,1.93,4.42,6.3,6.11,5.36,2.07,8.08,4.65,8.08,9.31,0,4.88-3.61,9.11-11.09,9.11a16.34,16.34,0,0,1-8.08-2Z"/><path d="M617.58,122.19H608v-3.48H631.4v3.48h-9.68v28.19h-4.14Z"/><path d="M645.93,140.42l-3.29,10h-4.23l10.76-31.67h4.93l10.81,31.67h-4.37l-3.38-10Zm10.38-3.2-3.1-9.11c-.7-2.07-1.18-4-1.64-5.78h-.1c-.47,1.88-1,3.8-1.6,5.73l-3.1,9.16Z"/><path d="M681.36,122.19h-9.63v-3.48h23.45v3.48H685.5v28.19h-4.14Z"/><path d="M724.51,135.53H712.2V147h13.72v3.43H708.11V118.71h17.1v3.43h-13v10h12.31Z"/></g></g></svg>