<svg xmlns="http://www.w3.org/2000/svg" viewBox="0 0 20.95 18.4"><defs><style>.cls-1{fill:#021a40;}</style></defs><title>filtre-icon</title><g id="Calque_2" data-name="Calque 2"><g id="background"><path class="cls-1" d="M6.15,0A2.74,2.74,0,0,0,3.54,2H.74A.74.74,0,0,0,0,2.74a.76.76,0,0,0,.77.77h2.8a2.71,2.71,0,0,0,2.61,2,2.75,2.75,0,0,0,2.65-2H20.18a.77.77,0,0,0,0-1.54H8.83A2.81,2.81,0,0,0,6.15,0Zm0,1.54A1.2,1.2,0,1,1,5,2.74,1.2,1.2,0,0,1,6.18,1.54Z"/><path class="cls-1" d="M15.41,6.15a2.74,2.74,0,0,0-2.61,2H.77A.75.75,0,0,0,0,8.89a.76.76,0,0,0,.77.77h12a2.71,2.71,0,0,0,2.61,2,2.75,2.75,0,0,0,2.65-2h2.12a.77.77,0,1,0,0-1.54H18.06A2.75,2.75,0,0,0,15.41,6.15Zm0,1.54a1.2,1.2,0,0,1,0,2.4,1.2,1.2,0,0,1-1.2-1.2A1.18,1.18,0,0,1,15.45,7.69Z"/><path class="cls-1" d="M9.85,12.92a2.75,2.75,0,0,0-2.62,2H.77a.75.75,0,0,0-.77.77.76.76,0,0,0,.77.77H7.26a2.74,2.74,0,0,0,5.26,0h7.66a.77.77,0,0,0,0-1.54H12.49A2.74,2.74,0,0,0,9.85,12.92Zm0,1.54a1.2,1.2,0,1,1-1.2,1.2A1.22,1.22,0,0,1,9.88,14.46Z"/></g></g></svg>