<svg xmlns="http://www.w3.org/2000/svg" viewBox="0 0 19.32 19.43"><defs><style>.cls-1{fill:#021a40;}</style></defs><title>share</title><g id="Calque_2" data-name="Calque 2"><g id="background"><path class="cls-1" d="M15.9,6.84a3.44,3.44,0,0,0,3.42-3.42,3.42,3.42,0,0,0-6.84,0,4.55,4.55,0,0,0,0,.53L7.82,6.36A4.58,4.58,0,0,0,4.64,5.08a4.64,4.64,0,1,0,0,9.27,4.51,4.51,0,0,0,3-1.15l4.84,2.48c0,.11,0,.22,0,.33a3.42,3.42,0,1,0,.64-2L8.77,11.79a4.75,4.75,0,0,0,.5-2.07,4.41,4.41,0,0,0-.42-1.9l4.38-2.23A3.51,3.51,0,0,0,15.9,6.84Zm0,7.51A1.66,1.66,0,1,1,14.24,16,1.67,1.67,0,0,1,15.9,14.35ZM4.64,12.59A2.88,2.88,0,1,1,7.51,9.72,2.86,2.86,0,0,1,4.64,12.59ZM15.9,1.77a1.66,1.66,0,1,1-1.66,1.65A1.66,1.66,0,0,1,15.9,1.77Z"/></g></g></svg>